# Blender v2.90.0 OBJ File: ''
# www.blender.org
mtllib 5sided.mtl
o Cylinder
v -1.000000 0.000000 0.000000
v -0.309017 0.951057 0.000000
v 0.809017 0.587785 0.000000
v 0.809017 -0.587785 0.000000
v -0.309017 -0.951056 0.000000
v -0.184998 0.569365 0.000000
v -0.598666 -0.000000 0.000000
v 0.484331 0.351887 0.000000
v 0.484331 -0.351887 0.000000
v -0.184998 -0.569365 0.000000
v -0.240142 0.739081 0.000000
v -0.777115 -0.000000 0.000000
v 0.628700 0.456777 0.000000
v 0.628699 -0.456777 0.000000
v -0.240142 -0.739081 0.000000
vt 0.828690 0.500000
vt 0.549970 0.116376
vt 0.585720 0.006348
vt 0.944379 0.500000
vt 0.098993 0.262907
vt 0.005398 0.194906
vt 0.098993 0.737093
vt 0.005398 0.805093
vt 0.549970 0.883624
vt 0.585720 0.993652
vt 0.524189 0.136125
vt 0.738905 0.431658
vt 0.524189 0.727190
vt 0.176770 0.614307
vt 0.176769 0.249009
vn 0.0000 0.0000 1.0000
usemtl BLACK
s off
f 12/1/1 11/2/1 2/3/1 1/4/1
f 11/2/1 13/5/1 3/6/1 2/3/1
f 13/5/1 14/7/1 4/8/1 3/6/1
f 14/7/1 15/9/1 5/10/1 4/8/1
f 15/9/1 12/1/1 1/4/1 5/10/1
f 6/11/1 7/12/1 10/13/1 9/14/1 8/15/1
